<svg width="21" height="20" viewBox="0 0 21 20" fill="none" xmlns="http://www.w3.org/2000/svg">
<path d="M10.5 0.0400391C5 0.0400391 0.5 4.53004 0.5 10.06C0.5 15.06 4.16 19.21 8.94 19.96V12.96H6.4V10.06H8.94V7.85004C8.94 5.34004 10.43 3.96004 12.72 3.96004C13.81 3.96004 14.95 4.15004 14.95 4.15004V6.62004H13.69C12.45 6.62004 12.06 7.39004 12.06 8.18004V10.06H14.84L14.39 12.96H12.06V19.96C14.4164 19.5879 16.5622 18.3856 18.1099 16.5701C19.6576 14.7546 20.5053 12.4457 20.5 10.06C20.5 4.53004 16 0.0400391 10.5 0.0400391Z" fill="#E1E1E6"/>
</svg>
